<svg id="white_logo" data-name="white logo" xmlns="http://www.w3.org/2000/svg" width="752" height="175" viewBox="0 0 752 175">
  <defs>
    <style>
      .cls-1, .cls-2 {
        fill: #fff;
      }

      .cls-1 {
        fill-rule: evenodd;
      }

      .cls-2 {
        stroke: #fff;
        stroke-linejoin: round;
        stroke-width: 6px;
      }
    </style>
  </defs>
  <path id="Zion_" data-name="Zion " class="cls-1" d="M369.766,42.338H372.5a31.4,31.4,0,0,1,3.245-11.013,12.7,12.7,0,0,1,5.982-5.722,19.336,19.336,0,0,1,7.585-1.189h11.924L367.891,79.252V82h41.8l1.054-22.764h-2.734q-1.758,8.655-3.887,12.325a14.125,14.125,0,0,1-5.566,5.517,18.582,18.582,0,0,1-8.828,1.846H377.188L410.2,24.414V21.338H370.859Zm53.925-20.3a4.617,4.617,0,0,0-.02,6.46,4.2,4.2,0,0,0,6.192.02,4.485,4.485,0,0,0,1.289-3.2,4.606,4.606,0,0,0-1.329-3.281A4.067,4.067,0,0,0,423.691,22.035Zm-7.11,24.609h3.008a5.253,5.253,0,0,1,3.711,1.169,4.521,4.521,0,0,1,1.25,3.466v24.2a3.688,3.688,0,0,1-.8,2.564,3.245,3.245,0,0,1-2.519.882h-3.867V82h20.82V78.924h-4.141a3.226,3.226,0,0,1-2.265-.82,2.521,2.521,0,0,1-.625-1.928V43.117l-14.571.451v3.076Zm31.738,1.436q-4.962,5.66-4.961,14.725,0,9.024,4.941,14.684a15.413,15.413,0,0,0,12.051,5.66,16.688,16.688,0,0,0,8.965-2.584,17.278,17.278,0,0,0,6.406-7.034,23.682,23.682,0,0,0,2.246-10.767q0-9.146-5.019-14.745a16,16,0,0,0-12.4-5.6A15.629,15.629,0,0,0,448.319,48.08Zm19.668,1.23q2.791,3.979,2.793,12.879,0,9.6-2.832,13.822a8.576,8.576,0,0,1-7.4,4.225q-4.415,0-7.207-4.225t-2.793-13.371q0-8.982,2.813-13.145t7.187-4.163A8.67,8.67,0,0,1,467.987,49.311Zm16.093-3.076h1.875a4.942,4.942,0,0,1,3.652,1.271,5.066,5.066,0,0,1,1.27,3.732V76.053a2.549,2.549,0,0,1-1,2.051,4.478,4.478,0,0,1-2.91.82h-2.539V82h19.375V78.924h-2.539a4.277,4.277,0,0,1-3.027-.882,4,4,0,0,1-.918-2.974V60.836a15.217,15.217,0,0,1,2.949-9.721,9.032,9.032,0,0,1,7.363-3.732,7.211,7.211,0,0,1,6.641,3.691q1.562,2.584,1.562,7.957V75.479a3.2,3.2,0,0,1-1.015,2.584,5.663,5.663,0,0,1-3.594.861h-1.836V82h19.3V78.924h-2.578a4.2,4.2,0,0,1-3.008-.882,4.061,4.061,0,0,1-.9-2.974v-18.7a17.228,17.228,0,0,0-1.485-7.26,10.389,10.389,0,0,0-3.945-4.737,11.535,11.535,0,0,0-6.094-1.5,13.941,13.941,0,0,0-7.558,2.092,17.877,17.877,0,0,0-5.8,6.275,66.387,66.387,0,0,0-1.094-8.449l-12.148.779v2.666Z"/>
  <path id="Cloud" class="cls-1" d="M570.463,20.92a20.05,20.05,0,0,0-7.265-1.353,21.717,21.717,0,0,0-12.539,4q-5.821,4-9.551,11.956a39.6,39.6,0,0,0-3.731,17.021,34.307,34.307,0,0,0,3.614,15.688A26.981,26.981,0,0,0,550.639,79.2,24.332,24.332,0,0,0,563.9,83.018a20.084,20.084,0,0,0,14.766-5.824q5.859-5.824,7.07-16.652h-2.774q-1.444,9.557-6.211,14.294a16.071,16.071,0,0,1-11.8,4.737q-8.048,0-12.5-6.07-5.235-7.177-5.235-20.836,0-16.242,4.571-23.051t11.835-6.809q6.719,0,11.563,6.111,3.906,4.881,6.484,15.176h2.618l-1.016-24.4h-2.461l-2.7,5.865A30.179,30.179,0,0,0,570.463,20.92Zm21.894-.082v3.076h3.281a5.1,5.1,0,0,1,3.555,1.313,3.829,3.829,0,0,1,1.055,2.994V74.979a3.492,3.492,0,0,1-.879,2.543,3.581,3.581,0,0,1-2.676.9h-3.672V81.5h20.742V78.424H609.9a3.58,3.58,0,0,1-2.383-.82,2.284,2.284,0,0,1-.664-1.764v-55.7Zm31.7,26.742Q619.094,53.24,619.1,62.3q0,9.024,4.941,14.684a15.413,15.413,0,0,0,12.051,5.66,16.688,16.688,0,0,0,8.965-2.584,17.278,17.278,0,0,0,6.406-7.034A23.682,23.682,0,0,0,653.7,62.264q0-9.146-5.02-14.745a16,16,0,0,0-12.4-5.6A15.626,15.626,0,0,0,624.056,47.58Zm19.668,1.23q2.791,3.979,2.793,12.879,0,9.6-2.833,13.822a8.574,8.574,0,0,1-7.4,4.225q-4.414,0-7.207-4.225t-2.793-13.371q0-8.982,2.813-13.145t7.187-4.163A8.672,8.672,0,0,1,643.724,48.811Zm15.663-5.742V45.94q3.633,0.083,4.805.9a3.817,3.817,0,0,1,1.679,3.363V66.9q0,8.244,3.393,11.69a11.066,11.066,0,0,0,8.308,3.486,12.624,12.624,0,0,0,6.707-2.051,26.963,26.963,0,0,0,6.592-6.111l0.781,7.547,12.3-.287V78.424h-2.3a4.442,4.442,0,0,1-3.281-1.169,4.517,4.517,0,0,1-1.172-3.343V42.371l-12.851.7V45.94q3.828,0.123,5.176,1.21a3.7,3.7,0,0,1,1.347,3.056V64.6a14.118,14.118,0,0,1-3.06,9.29,9.306,9.306,0,0,1-7.426,3.712,7.358,7.358,0,0,1-5.788-2.543q-2.241-2.543-2.241-7.219V42.371Zm70.839-19.154h2.617a6.369,6.369,0,0,1,3.965,1,3.3,3.3,0,0,1,1.269,2.728v21.7a15.508,15.508,0,0,0-4.863-5.578,11.187,11.187,0,0,0-6.308-1.846,13.762,13.762,0,0,0-10.157,4.553q-5.625,5.824-5.625,15.586,0,9.024,4.395,14.52t10.644,5.5a11.334,11.334,0,0,0,6.7-2.112,17.669,17.669,0,0,0,5.214-6.3l0.938,7.834h12.5V78.424h-2.539a4.134,4.134,0,0,1-3.34-1.312q-1.113-1.312-1.113-4.389V20.141l-14.3.7v3.076Zm4.687,25.348q3.243,4.471,3.243,12.264,0,8.244-3.028,12.53t-7.285,4.286a7.579,7.579,0,0,1-6.523-3.835q-2.54-3.835-2.539-13.227,0-8.654,2.48-12.3a7.712,7.712,0,0,1,6.7-3.65q4.14,0,6.953,3.938h0Z"/>
  <path id="Solutions" class="cls-1" d="M384.892,94.079a13.018,13.018,0,0,0-5.013-.981,11.908,11.908,0,0,0-9.02,3.7,13.212,13.212,0,0,0-3.526,9.5q0,5.56,3.54,8.594,2.52,2.141,9.459,3.866a46.972,46.972,0,0,1,8.468,2.631,7.607,7.607,0,0,1,3.143,2.677,6.85,6.85,0,0,1,.992,3.7,8.53,8.53,0,0,1-2.648,6.319,9.346,9.346,0,0,1-6.84,2.6,12.956,12.956,0,0,1-9.317-4.074,19.72,19.72,0,0,1-5.324-11.122h-2.039v17.039h2.039l3.2-4.1a16.106,16.106,0,0,0,11.271,4.4,13.135,13.135,0,0,0,9.842-3.911,13.552,13.552,0,0,0,3.809-9.857,11.729,11.729,0,0,0-1.388-5.814,10.97,10.97,0,0,0-4.206-4.118q-2.817-1.635-9.815-3.233a29.1,29.1,0,0,1-6.783-2.122,6.812,6.812,0,0,1-2.7-2.589,7.372,7.372,0,0,1-.905-3.7,7.769,7.769,0,0,1,2.379-5.745,8.333,8.333,0,0,1,6.117-2.352,10.96,10.96,0,0,1,7.916,3.39q3.44,3.39,5.2,10.764h1.869l-0.169-16.028h-2.068l-2.549,3.836A17.588,17.588,0,0,0,384.892,94.079Zm31.24,1.977a20.4,20.4,0,0,0-7.094,8.177,25.962,25.962,0,0,0-2.591,11.7,26.573,26.573,0,0,0,2.676,11.969,20.562,20.562,0,0,0,7.094,8.3,16.93,16.93,0,0,0,9.459,2.9,17.742,17.742,0,0,0,9.757-2.959,20.31,20.31,0,0,0,7.235-8.251,28.011,28.011,0,0,0,.015-23.685,20,20,0,0,0-7.25-8.178,18.243,18.243,0,0,0-9.927-2.929A16.833,16.833,0,0,0,416.132,96.057Zm16.143,1.472a13.449,13.449,0,0,1,4.361,6.586q1.53,4.446,1.53,12.356a34.86,34.86,0,0,1-1.629,11.716,13.734,13.734,0,0,1-4.375,6.512,10.361,10.361,0,0,1-6.372,2.052,10.629,10.629,0,0,1-8.695-4.52q-3.512-4.52-3.512-16.325,0-10.884,3.427-15.7a10.516,10.516,0,0,1,8.949-4.817A10.219,10.219,0,0,1,432.275,97.529ZM454,96.25h4.248a2.461,2.461,0,0,1,1.756.565,2.193,2.193,0,0,1,.595,1.665v34.346a3.055,3.055,0,0,1-.708,2.245,3.463,3.463,0,0,1-2.464.7H454V138h34.891l0.962-16.92h-1.982q-1.357,8.118-4.341,11.4a9.9,9.9,0,0,1-7.679,3.286h-5.883a4.692,4.692,0,0,1-2.673-.521,2.115,2.115,0,0,1-.664-1.769v-34.7a2.9,2.9,0,0,1,.524-1.918,2.033,2.033,0,0,1,1.628-.61h4.645V94.02H454v2.23Zm42.2,0h3.976a2.947,2.947,0,0,1,1.988.58,2.007,2.007,0,0,1,.663,1.591v26.554a15.946,15.946,0,0,0,1.217,6.661,11.252,11.252,0,0,0,5.183,5.338q3.569,1.858,9.8,1.859,7.192,0,11.526-4.253,3.852-3.776,3.852-10.853V102.108a6.465,6.465,0,0,1,1.3-4.356,4.971,4.971,0,0,1,3.965-1.5H540.8V94.02H524.974v2.23a10.951,10.951,0,0,1,3.4.372,3.98,3.98,0,0,1,1.686,1.145,5.283,5.283,0,0,1,1.019,2.156,17.481,17.481,0,0,1,.354,4.059v20.191a11.466,11.466,0,0,1-3,8.311q-3,3.108-8.712,3.107a11.6,11.6,0,0,1-6.689-1.754,8.9,8.9,0,0,1-3.522-4.7,20.161,20.161,0,0,1-.65-5.888V98.421a2.038,2.038,0,0,1,.623-1.636,3.39,3.39,0,0,1,2.181-.535h3.879V94.02H496.2v2.23Zm51.121,14.393h2.068q0.99-7.227,3.256-10.587,2.746-4.073,6.854-4.073a3.111,3.111,0,0,1,2.1.58,2.171,2.171,0,0,1,.651,1.71v35.654a1.8,1.8,0,0,1-.51,1.338,2,2,0,0,1-1.472.506H555.45V138h19.456v-2.23h-4.22a3.007,3.007,0,0,1-1.954-.506,1.957,1.957,0,0,1-.594-1.576V98.54a2.658,2.658,0,0,1,.61-1.963A3.248,3.248,0,0,1,571,95.983q8.173,0,10.1,14.66h1.954L582.241,94.02H548.228ZM590.288,96.25h3.285a4.593,4.593,0,0,1,2.917.684A3.435,3.435,0,0,1,597,99.283v33.3a4.01,4.01,0,0,1-.566,2.587,3.6,3.6,0,0,1-2.492.595h-3.653V138H609.6v-2.23h-3.71a3.451,3.451,0,0,1-2.464-.684,3.9,3.9,0,0,1-.51-2.5v-33.3a3.618,3.618,0,0,1,.581-2.453q0.58-.58,2.789-0.58H609.6V94.02H590.288v2.23Zm38.065-.193a20.4,20.4,0,0,0-7.094,8.177,25.962,25.962,0,0,0-2.591,11.7,26.573,26.573,0,0,0,2.676,11.969,20.562,20.562,0,0,0,7.094,8.3,16.93,16.93,0,0,0,9.459,2.9,17.742,17.742,0,0,0,9.757-2.959,20.312,20.312,0,0,0,7.236-8.251,28.016,28.016,0,0,0,.014-23.685,20,20,0,0,0-7.25-8.178,18.243,18.243,0,0,0-9.927-2.929A16.833,16.833,0,0,0,628.353,96.057ZM644.5,97.529a13.449,13.449,0,0,1,4.361,6.586q1.53,4.446,1.53,12.356a34.86,34.86,0,0,1-1.629,11.716,13.734,13.734,0,0,1-4.375,6.512,10.361,10.361,0,0,1-6.372,2.052,10.63,10.63,0,0,1-8.695-4.52q-3.512-4.52-3.511-16.325,0-10.884,3.426-15.7a10.518,10.518,0,0,1,8.95-4.817A10.219,10.219,0,0,1,644.5,97.529Zm22.291-1.279h1.892a4.675,4.675,0,0,1,2.117.416,9.275,9.275,0,0,1,2.007,1.917l0.5,0.574V128.94a6.851,6.851,0,0,1-1.756,4.766,6.456,6.456,0,0,1-4.758,2.064V138H682.76v-2.23q-3.626-.06-5.352-1.83t-1.728-5.371V102.026L701.82,138h2.662V103.06a8.638,8.638,0,0,1,.825-3.777,5.3,5.3,0,0,1,1.934-2.379,6.779,6.779,0,0,1,3.358-.654V94.02h-14.67v2.23a5.892,5.892,0,0,1,4.475,1.725q1.641,1.814,1.642,5.59v25.009L676.785,94.02h-10v2.23Zm70.55-2.171a13.018,13.018,0,0,0-5.013-.981,11.91,11.91,0,0,0-9.02,3.7,13.212,13.212,0,0,0-3.526,9.5q0,5.56,3.54,8.594,2.52,2.141,9.459,3.866a46.972,46.972,0,0,1,8.468,2.631,7.61,7.61,0,0,1,3.144,2.677,6.859,6.859,0,0,1,.991,3.7,8.53,8.53,0,0,1-2.648,6.319,9.346,9.346,0,0,1-6.84,2.6,12.956,12.956,0,0,1-9.317-4.074,19.72,19.72,0,0,1-5.324-11.122h-2.039v17.039h2.039l3.2-4.1a16.107,16.107,0,0,0,11.272,4.4,13.134,13.134,0,0,0,9.841-3.911,13.552,13.552,0,0,0,3.809-9.857,11.729,11.729,0,0,0-1.388-5.814,10.974,10.974,0,0,0-4.205-4.118q-2.819-1.635-9.816-3.233a29.1,29.1,0,0,1-6.783-2.122,6.812,6.812,0,0,1-2.7-2.589,7.372,7.372,0,0,1-.9-3.7,7.769,7.769,0,0,1,2.379-5.745,8.333,8.333,0,0,1,6.117-2.352,10.96,10.96,0,0,1,7.916,3.39q3.441,3.39,5.2,10.764h1.87l-0.17-16.028h-2.068l-2.549,3.836A17.588,17.588,0,0,0,737.337,94.079Z"/>
  <path id="zcs" class="cls-1" d="M86.544,112.563h5.374q1.743-9.231,3.776-13.008a13.414,13.414,0,0,1,4.83-5.417q2.8-1.64,8.462-1.64h18.087L84.366,153.3v5.264h57.227l1.6-28.076h-4.866Q136,143.355,131.712,148.1t-11.48,4.746H99.379l42.795-61.188V87.081H88.215Zm96.938,41.58q-9.006,0-14.816-7.887t-5.809-23.2q0-16.079,6.536-25.909,4.575-6.781,13.435-6.782a12.7,12.7,0,0,1,7.7,2.091q2.832,2.092,2.832,4.3A4.236,4.236,0,0,1,192.2,99.03a10.006,10.006,0,0,0-2.469,6.388,7.957,7.957,0,0,0,2.251,5.7,7.338,7.338,0,0,0,5.52,2.356,7.433,7.433,0,0,0,5.773-2.784,10.334,10.334,0,0,0,2.433-7.057q0-7.1-6.536-12.894t-16.558-5.8q-13.364,0-23.239,10.414t-9.877,29.335q0,16.328,9,26.169t23.167,9.841q19.317,0,24.982-21.9l-4.72-1.449q-6.029,16.785-18.446,16.784h0Zm32.084-22.507,1.455,28.458h3.854l5.308-6.409a29.183,29.183,0,0,0,18.763,7.019q10.907,0,18-6.557a20.987,20.987,0,0,0,7.091-16.014,20.052,20.052,0,0,0-3.272-11.627,19.182,19.182,0,0,0-9.232-7.054q-3.639-1.455-15.715-3.6-10.4-1.761-13.969-4.814a9.262,9.262,0,0,1-3.637-7.477,11.229,11.229,0,0,1,3.929-8.66q3.929-3.547,10.843-3.548a19.736,19.736,0,0,1,13.461,4.768q5.457,4.769,8.659,15.6h4.866l-1.891-25.482h-2.982l-4.8,5.34a26.245,26.245,0,0,0-16.436-5.875q-11.638,0-18.11,8.163a22.58,22.58,0,0,0-5.019,14.267,19.606,19.606,0,0,0,2.436,9.613,17.745,17.745,0,0,0,6.8,6.943q4.362,2.517,15.422,4.806,11.568,2.289,14.335,3.472a9.483,9.483,0,0,1,4.329,3.585,10.05,10.05,0,0,1,1.564,5.608,11.558,11.558,0,0,1-4.248,9.193q-4.248,3.625-12.164,3.624a21.213,21.213,0,0,1-14.416-5.073q-5.847-5.073-10.349-18.273h-4.866Z"/>
  <path id="Reliability_as_a_Service_" data-name="Reliability as a Service " class="cls-1" d="M371.312,153.248c0.529-.046,1.035-0.069,1.472-0.069,2.966,0,4.277,1.012,4.277,3.519,0,2.575-1.357,3.679-4.277,3.679-0.46,0-.943-0.023-1.472-0.069v-7.06Zm0,7.888h1.4c3.357,0,4.093.92,4.093,3.955,0,0.322-.046.736-0.046,1.219,0,1.977.735,2.9,2.46,2.9a2.329,2.329,0,0,0,2.507-2.323l-0.483-.115a1.254,1.254,0,0,1-1.219,1.288,0.97,0.97,0,0,1-.92-0.6,15.971,15.971,0,0,1-.322-2.943c-0.368-2.414-1.471-3.4-4.53-3.817,3.4-.276,4.967-1.472,4.967-3.955,0-3.289-2.069-4.254-6.783-4.254h-5.105v0.758H367.5c1.563,0,1.7.322,1.7,1.863v11.268c0,1.54-.161,1.885-1.7,1.885h-0.161V169c1.011-.069,1.977-0.115,2.966-0.115,0.966,0,1.932.046,2.874,0.115v-0.736h-0.161c-1.54,0-1.7-.345-1.7-1.885v-5.243Zm19.987,1.931,7.543-.184c0-.161.023-0.322,0.023-0.46,0-2.943-1.656-4.668-4.438-4.668-3.082,0-5.174,2.231-5.174,5.933,0,3.541,1.839,5.588,4.9,5.588a4.5,4.5,0,0,0,4.714-3.357l-0.483-.184a3.542,3.542,0,0,1-3.473,2.391c-2.391,0-3.61-1.54-3.61-4.553v-0.506Zm0-.621c0.115-2.644,1.288-4.07,3.22-4.07,1.7,0,2.6,1.242,2.6,3.657v0.183Zm19.182,4.369v-14.9c-1.334.184-2.6,0.3-3.794,0.368v0.643h0.276c1.448,0,1.7.207,1.7,1.4v12.486c0,1.311-.092,1.426-1.839,1.541V169c0.9-.069,1.793-0.115,2.713-0.115s1.84,0.046,2.782.115v-0.644C410.527,168.31,410.481,168.149,410.481,166.815Zm13.041,0v-8.991a36.645,36.645,0,0,1-4.07.368v0.644h0.413c1.61,0,1.84.161,1.84,1.4v6.576c0,1.4-.138,1.449-2.253,1.541V169c1.011-.069,2.023-0.115,3.035-0.115,0.989,0,1.977.046,2.943,0.115v-0.644C423.591,168.333,423.522,168.172,423.522,166.815Zm0.138-12.187a0.9,0.9,0,0,0-1.012-.966,1.424,1.424,0,0,0-1.311,1.242,0.9,0.9,0,0,0,.966.989A1.413,1.413,0,0,0,423.66,154.628Zm15.731,12.831a1.72,1.72,0,0,0,1.863,1.748,2.512,2.512,0,0,0,2.391-1.633l-0.391-.23a1.136,1.136,0,0,1-1.058.667c-0.827,0-.965-0.483-0.965-1.563,0-.276.023-0.6,0.023-0.943l0.092-3.656v-0.276c0-2.553-.989-3.749-3.565-3.749-2.253,0-4,1.564-4,2.944a0.715,0.715,0,0,0,.667.851,1.176,1.176,0,0,0,1.035-1.38c0-.253-0.046-0.575-0.092-0.989a3.307,3.307,0,0,1,2.207-.759c1.541,0,1.932.943,1.932,2.944V161.8l-0.023,1.126c-1.909.46-3.242,0.759-4,.989-1.587.483-2.3,1.334-2.3,2.805a2.329,2.329,0,0,0,2.576,2.507A4.948,4.948,0,0,0,439.391,167.459Zm0.092-3.886-0.069,2.875a3.234,3.234,0,0,1-2.736,1.77,1.681,1.681,0,0,1-1.725-1.862C434.953,164.608,436.264,164.24,439.483,163.573Zm14.284-2.483c0.851-1.656,1.793-2.461,3.012-2.461,1.748,0,2.783,1.587,2.783,4.553,0,3.519-1.035,5.289-3.174,5.289a3.163,3.163,0,0,1-2.621-1.265V161.09Zm-1.817-6.761v14.878h0.414l1.058-1.1a4.649,4.649,0,0,0,3.127,1.1c3.036,0,5.036-2.254,5.036-5.956,0-3.334-1.817-5.427-4.323-5.427a3.985,3.985,0,0,0-3.5,1.955v-7.864c-1.173.161-2.346,0.276-3.472,0.368v0.643C451.743,152.949,451.95,153.156,451.95,154.329Zm21.206,12.486v-8.991a36.641,36.641,0,0,1-4.071.368v0.644H469.5c1.61,0,1.84.161,1.84,1.4v6.576c0,1.4-.138,1.449-2.254,1.541V169c1.012-.069,2.024-0.115,3.036-0.115,0.989,0,1.977.046,2.943,0.115v-0.644C473.224,168.333,473.156,168.172,473.156,166.815Zm0.137-12.187a0.9,0.9,0,0,0-1.011-.966,1.424,1.424,0,0,0-1.311,1.242,0.9,0.9,0,0,0,.966.989A1.412,1.412,0,0,0,473.293,154.628Zm12.742,12.187v-14.9c-1.333.184-2.6,0.3-3.794,0.368v0.643h0.276c1.449,0,1.7.207,1.7,1.4v12.486c0,1.311-.092,1.426-1.84,1.541V169c0.9-.069,1.794-0.115,2.714-0.115s1.839,0.046,2.782.115v-0.644C486.081,168.31,486.035,168.149,486.035,166.815Zm13.041,0v-8.991a36.6,36.6,0,0,1-4.07.368v0.644h0.414c1.61,0,1.84.161,1.84,1.4v6.576c0,1.4-.138,1.449-2.254,1.541V169c1.012-.069,2.024-0.115,3.036-0.115,0.988,0,1.977.046,2.943,0.115v-0.644C499.145,168.333,499.076,168.172,499.076,166.815Zm0.138-12.187a0.9,0.9,0,0,0-1.012-.966,1.423,1.423,0,0,0-1.31,1.242,0.9,0.9,0,0,0,.966.989A1.413,1.413,0,0,0,499.214,154.628Zm12.6,4.461H514.6v-0.621h-2.783l0.092-3.357h-0.69a4.2,4.2,0,0,1-2.437,3.5v0.483H510l-0.184,6.83v0.322c0,2.023.621,2.966,2.414,2.966a2.921,2.921,0,0,0,2.944-2.185l-0.46-.184a1.672,1.672,0,0,1-1.61,1.173c-1.219,0-1.449-.759-1.449-2.322v-0.506Zm15.387,9.681q-1.07,3.691-1.932,4.277a2.061,2.061,0,0,0-1.425-.713,0.827,0.827,0,0,0-.9.874,1.035,1.035,0,0,0,1.219.9c1.609,0,2.345-1.311,3.311-4.093l3.541-10.072a1.44,1.44,0,0,1,1.449-1.265v-0.644a15.757,15.757,0,0,1-1.817.092,17.389,17.389,0,0,1-1.862-.092v0.644c1.011,0.046,1.494.276,1.494,0.782,0,0.713-.85,2.966-2.23,6.922l-2.392-6.117a2.741,2.741,0,0,1-.276-1.058c0-.3.391-0.529,1.127-0.529h0.115v-0.644c-0.782.069-1.563,0.092-2.345,0.092s-1.541-.023-2.323-0.092v0.644a1.983,1.983,0,0,1,1.748,1.61Zm31.854-1.311a1.72,1.72,0,0,0,1.863,1.748,2.51,2.51,0,0,0,2.391-1.633l-0.39-.23a1.136,1.136,0,0,1-1.058.667c-0.828,0-.966-0.483-0.966-1.563,0-.276.023-0.6,0.023-0.943l0.092-3.656v-0.276c0-2.553-.989-3.749-3.564-3.749-2.254,0-4,1.564-4,2.944a0.715,0.715,0,0,0,.666.851,1.176,1.176,0,0,0,1.035-1.38c0-.253-0.046-0.575-0.092-0.989a3.308,3.308,0,0,1,2.208-.759c1.54,0,1.931.943,1.931,2.944V161.8l-0.023,1.126c-1.908.46-3.242,0.759-4,.989-1.586.483-2.3,1.334-2.3,2.805a2.329,2.329,0,0,0,2.575,2.507A4.944,4.944,0,0,0,559.059,167.459Zm0.092-3.886-0.069,2.875a3.232,3.232,0,0,1-2.736,1.77,1.681,1.681,0,0,1-1.725-1.862C554.621,164.608,555.932,164.24,559.151,163.573ZM571.182,169h0.552l0.138-.736a5.006,5.006,0,0,0,3.035.943c2.529,0,4.047-1.4,4.047-3.426,0-1.794-1.127-2.53-3.4-3.243-1.863-.574-2.944-0.85-2.944-2.207a1.868,1.868,0,0,1,2.093-1.863c1.771,0,2.8.989,3.035,2.875h0.552c-0.023-.506-0.046-1.035-0.046-1.564s0.023-1.081.046-1.633h-0.506l-0.184.644a4.265,4.265,0,0,0-2.874-.966c-2.231,0-3.656,1.311-3.656,3.335,0,1.862,1.034,2.414,3.242,3.081,1.955,0.6,3.035.874,3.035,2.323,0,1.264-.827,2-2.322,2-2.024,0-3.081-1.15-3.2-3.449h-0.575v0.966C571.251,167.045,571.228,168.034,571.182,169Zm35.027-1.541a1.72,1.72,0,0,0,1.863,1.748,2.511,2.511,0,0,0,2.391-1.633l-0.391-.23a1.136,1.136,0,0,1-1.057.667c-0.828,0-.966-0.483-0.966-1.563,0-.276.023-0.6,0.023-0.943l0.092-3.656v-0.276c0-2.553-.989-3.749-3.564-3.749-2.254,0-4,1.564-4,2.944a0.715,0.715,0,0,0,.667.851,1.176,1.176,0,0,0,1.035-1.38c0-.253-0.046-0.575-0.092-0.989a3.308,3.308,0,0,1,2.208-.759c1.54,0,1.931.943,1.931,2.944V161.8l-0.023,1.126c-1.908.46-3.242,0.759-4,.989-1.587.483-2.3,1.334-2.3,2.805a2.329,2.329,0,0,0,2.575,2.507A4.946,4.946,0,0,0,606.209,167.459Zm0.092-3.886-0.069,2.875a3.233,3.233,0,0,1-2.736,1.77,1.681,1.681,0,0,1-1.725-1.862C601.771,164.608,603.082,164.24,606.3,163.573Zm25.807,4.99h0.529l0.253-1.035a6.07,6.07,0,0,0,4.369,1.679c3.311,0,5.5-1.978,5.5-4.645,0-1.725-.759-2.759-2.414-3.794a34.721,34.721,0,0,0-3.726-1.518c-1.77-.69-2.575-1.61-2.575-3.058a3.034,3.034,0,0,1,3.311-3.128c2.507,0,3.909,1.426,4.208,4.3h0.552c-0.046-.805-0.069-1.564-0.069-2.323s0.023-1.518.069-2.23h-0.506l-0.184.85a6.967,6.967,0,0,0-4.3-1.379c-3.058,0-5.036,1.908-5.036,4.76a3.692,3.692,0,0,0,1.127,2.874,10.035,10.035,0,0,0,3.426,1.794,11.585,11.585,0,0,1,3.128,1.517,2.564,2.564,0,0,1,.873,2.208c0,1.816-1.264,3.035-3.357,3.035-2.644,0-4.415-1.908-4.507-5.128h-0.667c0.023,0.828.046,1.679,0.046,2.553S632.131,167.643,632.108,168.563Zm21.712-5.5,7.542-.184c0-.161.023-0.322,0.023-0.46,0-2.943-1.655-4.668-4.438-4.668-3.081,0-5.174,2.231-5.174,5.933,0,3.541,1.84,5.588,4.9,5.588a4.5,4.5,0,0,0,4.714-3.357l-0.483-.184a3.541,3.541,0,0,1-3.472,2.391c-2.391,0-3.61-1.54-3.61-4.553v-0.506Zm0-.621c0.115-2.644,1.288-4.07,3.219-4.07,1.7,0,2.6,1.242,2.6,3.657v0.183Zm19.273,4.369V163.9c0-3.127,1.518-5.381,2.921-5.381h0.092a4.391,4.391,0,0,0-.161,1.1,0.888,0.888,0,0,0,.9,1.058,0.983,0.983,0,0,0,.919-1.15,1.6,1.6,0,0,0-1.632-1.7c-1.219,0-2.254,1.012-3.082,3.059v-3.059c-1.31.184-2.506,0.3-3.656,0.368v0.644c1.679,0,1.909.138,1.909,1.4v6.576c0,1.311-.115,1.426-1.863,1.541V169c0.966-.069,1.978-0.115,3.013-0.115s2.115,0.046,3.242.115v-0.644C673.53,168.333,673.093,168.241,673.093,166.815Zm16.652,2.392H690.3l3.771-9.336c0.345-.805.506-1.2,1.38-1.2h0.069v-0.644a13.819,13.819,0,0,1-1.7.092,15.069,15.069,0,0,1-1.747-.092v0.644c0.988,0.069,1.379.115,1.379,0.552a2.4,2.4,0,0,1-.138.713l-2.644,6.852-2.507-6.852a2.274,2.274,0,0,1-.138-0.713c0-.437.391-0.483,1.426-0.552v-0.644c-0.805.069-1.61,0.092-2.391,0.092-0.8,0-1.587-.023-2.392-0.092v0.644h0.161c0.874,0,.966.368,1.219,1.035Zm16.491-2.392v-8.991a36.623,36.623,0,0,1-4.07.368v0.644h0.414c1.609,0,1.839.161,1.839,1.4v6.576c0,1.4-.138,1.449-2.253,1.541V169c1.012-.069,2.023-0.115,3.035-0.115,0.989,0,1.978.046,2.944,0.115v-0.644C706.305,168.333,706.236,168.172,706.236,166.815Zm0.138-12.187a0.9,0.9,0,0,0-1.012-.966,1.424,1.424,0,0,0-1.311,1.242,0.9,0.9,0,0,0,.966.989A1.413,1.413,0,0,0,706.374,154.628Zm19.295,11.291-0.482-.184a3.542,3.542,0,0,1-3.473,2.391c-2.345,0-3.7-1.586-3.7-4.461,0-3.265,1.541-5.243,3.587-5.243a2.634,2.634,0,0,1,2.3.989,2.52,2.52,0,0,0-.3,1.15,1.008,1.008,0,0,0,.874,1.242,0.924,0.924,0,0,0,.851-1.081c0-1.61-1.564-2.99-3.8-2.99-3.173,0-5.472,2.438-5.472,6.14,0,3.334,2,5.4,5.012,5.4A4.445,4.445,0,0,0,725.669,165.919ZM736,163.067l7.542-.184c0-.161.023-0.322,0.023-0.46,0-2.943-1.655-4.668-4.438-4.668-3.081,0-5.174,2.231-5.174,5.933,0,3.541,1.84,5.588,4.9,5.588a4.5,4.5,0,0,0,4.714-3.357l-0.482-.184a3.542,3.542,0,0,1-3.473,2.391c-2.391,0-3.61-1.54-3.61-4.553v-0.506Zm0-.621c0.115-2.644,1.288-4.07,3.219-4.07,1.7,0,2.6,1.242,2.6,3.657v0.183Z"/>
  <circle id="Ellipse_5_copy_2" data-name="Ellipse 5 copy 2" class="cls-2" cx="487.594" cy="1939.925" r="46.594"/>
  <path id="Cloud-2" data-name="Cloud" class="cls-1" d="M1005.46,1850.92a20.059,20.059,0,0,0-7.262-1.35,21.689,21.689,0,0,0-12.539,4q-5.821,3.99-9.551,11.95a39.622,39.622,0,0,0-3.731,17.02,34.3,34.3,0,0,0,3.614,15.69,26.97,26.97,0,0,0,9.648,10.97,24.279,24.279,0,0,0,13.262,3.82,20.07,20.07,0,0,0,14.769-5.83q5.85-5.82,7.07-16.65h-2.78q-1.44,9.555-6.21,14.29a16.071,16.071,0,0,1-11.794,4.74q-8.048,0-12.5-6.07-5.235-7.17-5.235-20.83,0-16.245,4.571-23.05t11.835-6.81q6.725,0,11.563,6.11,3.9,4.875,6.48,15.17h2.62l-1.01-24.4h-2.47l-2.69,5.86A30.181,30.181,0,0,0,1005.46,1850.92Zm21.9-.08v3.07h3.28a5.07,5.07,0,0,1,3.55,1.32,3.793,3.793,0,0,1,1.06,2.99v46.76a3.514,3.514,0,0,1-.88,2.54,3.6,3.6,0,0,1-2.68.9h-3.67v3.08h20.74v-3.08h-3.86a3.577,3.577,0,0,1-2.39-.82,2.278,2.278,0,0,1-.66-1.76v-55.7Zm31.7,26.74q-4.965,5.655-4.97,14.72,0,9.03,4.95,14.69a15.416,15.416,0,0,0,12.05,5.66,16.611,16.611,0,0,0,8.96-2.59,17.208,17.208,0,0,0,6.41-7.03,23.672,23.672,0,0,0,2.24-10.77q0-9.135-5.02-14.74a16,16,0,0,0-12.4-5.6A15.622,15.622,0,0,0,1059.06,1877.58Zm19.66,1.23q2.8,3.975,2.8,12.88,0,9.6-2.84,13.82a8.556,8.556,0,0,1-7.4,4.23q-4.41,0-7.2-4.23-2.8-4.215-2.8-13.37,0-8.985,2.81-13.14t7.19-4.17A8.669,8.669,0,0,1,1078.72,1878.81Zm15.67-5.74v2.87c2.42,0.05,4.02.36,4.8,0.9a3.828,3.828,0,0,1,1.68,3.37v16.69q0,8.235,3.39,11.69a11.09,11.09,0,0,0,8.31,3.48,12.617,12.617,0,0,0,6.71-2.05,26.687,26.687,0,0,0,6.59-6.11l0.78,7.55,12.31-.29v-2.75h-2.31a4.445,4.445,0,0,1-3.28-1.17,4.5,4.5,0,0,1-1.17-3.34v-31.54l-12.85.7v2.87c2.55,0.08,4.28.49,5.17,1.21a3.694,3.694,0,0,1,1.35,3.06v14.39a14.108,14.108,0,0,1-3.06,9.29,9.28,9.28,0,0,1-7.42,3.71,7.332,7.332,0,0,1-5.79-2.54c-1.5-1.69-2.24-4.1-2.24-7.22v-25.47Zm70.84-19.16h2.61a6.382,6.382,0,0,1,3.97,1.01,3.314,3.314,0,0,1,1.27,2.73v21.69a15.477,15.477,0,0,0-4.87-5.57,11.17,11.17,0,0,0-6.3-1.85,13.778,13.778,0,0,0-10.16,4.55q-5.625,5.835-5.63,15.59,0,9.015,4.4,14.52t10.64,5.49a11.3,11.3,0,0,0,6.7-2.11,17.749,17.749,0,0,0,5.22-6.29l0.93,7.83h12.5v-3.08h-2.53a4.108,4.108,0,0,1-3.34-1.31c-0.75-.87-1.12-2.34-1.12-4.39v-52.58l-14.29.7v3.07Zm4.68,25.35q3.24,4.47,3.25,12.27,0,8.235-3.03,12.53-3.03,4.275-7.29,4.28a7.589,7.589,0,0,1-6.52-3.83q-2.535-3.84-2.54-13.23,0-8.655,2.48-12.31a7.719,7.719,0,0,1,6.7-3.65c2.76,0,5.08,1.32,6.95,3.94h0Z"/>
  <path id="Ellipse_9_copy_2" data-name="Ellipse 9 copy 2" class="cls-1" d="M302,161a48.048,48.048,0,0,1-8.425-.74C293.85,158.9,294,158,294,158l0.662-3.808A38.617,38.617,0,0,0,302.5,155c20.158,0,36.5-15.551,36.5-33.5S322.658,89,302.5,89c-0.852,0-1.694.035-2.531,0.087L299.02,84.1c0.179-.011.357-0.03,0.537-0.039a46.492,46.492,0,0,0-79.85-25.5l-3.278-4.919c0.119-.121.233-0.248,0.354-0.367A71.506,71.506,0,0,0,78.418,69.806L73,68l-0.361.241c0.014-.11.019-0.222,0.033-0.332a45.992,45.992,0,1,0-9.237,85.654l0.277,6.105a52,52,0,1,1,10-97.919,78,78,0,0,1,148.53-13.18,52.993,52.993,0,0,1,84.316,35.647C328.16,86.253,345,102.614,345,122.5,345,143.763,325.748,161,302,161Z"/>
</svg>
